Results
version=1
nRows=22
nColumns=24
inDegrees=yes
endheader
time	pelvis_tilt	pelvis_list	pelvis_rotation	pelvis_tx	pelvis_ty	pelvis_tz	hip_flexion_r	hip_adduction_r	hip_rotation_r	knee_angle_r	ankle_angle_r	subtalar_angle_r	mtp_angle_r	hip_flexion_l	hip_adduction_l	hip_rotation_l	knee_angle_l	ankle_angle_l	subtalar_angle_l	mtp_angle_l	lumbar_extension	lumbar_bending	lumbar_rotation
      1.12116667	     -3.73604080	     -1.82958655	      5.83624350	      0.51106689	      1.02108464	      0.30194559	     17.27561636	      8.14074753	      1.04431343	    -23.66807344	      4.57100402	    -12.39984908	      9.96745088	     17.29276296	     -3.51006730	     -0.37228551	    -56.84040502	      8.98063885	     -1.26178235	      6.14272950	      3.37285304	     -1.97080166	     -2.85095077
      1.12533333	     -3.73252341	     -1.80489681	      5.65160148	      0.51538591	      1.02155543	      0.30231949	     16.88609002	      8.18736489	      1.16038846	    -23.43870329	      4.65990640	    -12.33036920	      9.94824526	     17.81664158	     -3.46961952	     -0.44179490	    -56.37057292	      9.27175247	     -1.47396679	      6.12397323	      3.31599508	     -1.98523013	     -2.77438925
      1.12950000	     -3.66773747	     -1.76419503	      5.46469567	      0.51968219	      1.02211240	      0.30268353	     16.42799641	      8.22100514	      1.28653089	    -23.20738670	      4.78071663	    -12.22577277	      9.88946582	     18.25282710	     -3.41654181	     -0.50576327	    -55.84244689	      9.45977763	     -1.72380532	      6.05240958	      3.16915053	     -2.01553231	     -2.47878701
      1.13366667	     -3.65628436	     -1.72459047	      5.27636680	      0.52396863	      1.02255388	      0.30303720	     16.03886222	      8.24610858	      1.40637993	    -22.99945163	      4.90327064	    -12.12311318	      9.84442395	     18.73945032	     -3.36102066	     -0.57128739	    -55.28963485	      9.66241262	     -1.95766041	      5.98913298	      3.08386691	     -2.03767505	     -2.30059602
      1.13783333	     -3.62595993	     -1.69092491	      5.09646568	      0.52825784	      1.02300540	      0.30336564	     15.62728307	      8.27265509	      1.51116816	    -22.78406515	      5.01883589	    -12.01578109	      9.81136560	     19.19298083	     -3.31370034	     -0.62726261	    -54.69974161	      9.84056025	     -2.18005759	      5.93512674	      2.98450227	     -2.05750482	     -2.14851266
      1.14200000	     -3.59368671	     -1.66508034	      4.92140761	      0.53254365	      1.02342639	      0.30367089	     15.21547587	      8.30302718	      1.61089447	    -22.57140752	      5.14504561	    -11.90017538	      9.78097827	     19.63515410	     -3.27481446	     -0.67607300	    -54.07908905	      9.98456070	     -2.40057344	      5.87746246	      2.88642812	     -2.07067059	     -1.98238538
      1.14616667	     -3.57151479	     -1.64925745	      4.74927008	      0.53683235	      1.02379848	      0.30396664	     14.81700893	      8.34035921	      1.70476922	    -22.36132543	      5.27246135	    -11.78360402	      9.75307931	     20.07876724	     -3.24809613	     -0.72090146	    -53.43084218	     10.10492132	     -2.61530742	      5.81842595	      2.80456958	     -2.07265517	     -1.82377317
      1.15033333	     -3.54496523	     -1.62004968	      4.57324683	      0.54110975	      1.02416435	      0.30425082	     14.41761314	      8.36073344	      1.80210732	    -22.16117298	      5.40995559	    -11.65862956	      9.72675697	     20.49963819	     -3.20781702	     -0.76854120	    -52.73999430	     10.18872666	     -2.84283395	      5.75568439	      2.71359577	     -2.09107455	     -1.66109864
      1.15450000	     -3.52829282	     -1.60448393	      4.39669384	      0.54540424	      1.02448121	      0.30452594	     14.02935931	      8.39230005	      1.89523740	    -21.96218102	      5.54964140	    -11.53412552	      9.70414631	     20.91902627	     -3.18555355	     -0.81747451	    -52.02163542	     10.26093113	     -3.06218491	      5.69643310	      2.65533769	     -2.10118669	     -1.51544623
      1.15866667	     -3.52428699	     -1.57047799	      4.22419644	      0.54966803	      1.02475795	      0.30477816	     13.66464134	      8.39933393	      1.99081569	    -21.78590559	      5.70275986	    -11.39339097	      9.67582295	     21.33725343	     -3.13320669	     -0.84595836	    -51.26410782	     10.27201658	     -3.30369055	      5.61847635	      2.57639331	     -2.11946646	     -1.33357981
      1.16283333	     -3.50320848	     -1.56049736	      4.06220298	      0.55395784	      1.02503208	      0.30500144	     13.27700464	      8.42631977	      2.05728160	    -21.59382342	      5.85131852	    -11.24729123	      9.63377741	     21.72787660	     -3.10960947	     -0.86528621	    -50.48275873	     10.27618055	     -3.52722773	      5.50621447	      2.51479627	     -2.11817683	     -1.13196867
      1.16700000	     -3.49262625	     -1.54374297	      3.88336569	      0.55823062	      1.02525377	      0.30524683	     12.90724737	      8.45012484	      2.15985393	    -21.41860263	      6.00356759	    -11.12044118	      9.59514394	     22.11432155	     -3.08610810	     -0.90220951	    -49.67282157	     10.26953959	     -3.75450264	      5.39560826	      2.44709271	     -2.11861856	     -0.97939110
      1.17116667	     -3.49469206	     -1.52929644	      3.70133182	      0.56252596	      1.02544595	      0.30548473	     12.55038317	      8.47471990	      2.26925357	    -21.24454531	      6.14991004	    -10.99238725	      9.55222623	     22.49563597	     -3.06426309	     -0.93381828	    -48.82680630	     10.23781332	     -3.99443820	      5.27119558	      2.40019333	     -2.11968644	     -0.81743262
      1.17533333	     -3.48710201	     -1.51534817	      3.50135300	      0.56680391	      1.02561932	      0.30574563	     12.18723025	      8.50584302	      2.41994707	    -21.08000991	      6.29683362	    -10.89146170	      9.52980433	     22.85287927	     -3.05663178	     -0.99146492	    -47.95731282	     10.19720931	     -4.20486031	      5.19502670	      2.32106903	     -2.10984378	     -0.70850884
      1.17950000	     -3.49513094	     -1.50423672	      3.30928503	      0.57109632	      1.02573759	      0.30598510	     11.84326875	      8.53250606	      2.54739831	    -20.91982096	      6.44544737	    -10.78142379	      9.50557455	     23.21306712	     -3.04489910	     -1.02745671	    -47.05850332	     10.11599888	     -4.45767068	      5.11049355	      2.27909635	     -2.10886706	     -0.55494829
      1.18366667	     -3.47128301	     -1.48783915	      3.12792996	      0.57541369	      1.02591434	      0.30618914	     11.45908197	      8.54715219	      2.64929180	    -20.74802087	      6.58769636	    -10.64637231	      9.46114904	     23.51541620	     -3.02078179	     -1.03744718	    -46.11419536	     10.01039007	     -4.73049955	      4.96761113	      2.21537401	     -2.11502525	     -0.33773250
      1.18783333	     -3.46894727	     -1.46885983	      2.92257081	      0.57972169	      1.02600930	      0.30643946	     11.10844564	      8.56538480	      2.79361289	    -20.60181651	      6.73969893	    -10.55236099	      9.42650796	     23.82729051	     -3.00979311	     -1.08376061	    -45.15149119	      9.89106163	     -4.98370958	      4.84701825	      2.16792668	     -2.11338071	     -0.18378304
      1.19200000	     -3.46752753	     -1.45517439	      2.71158549	      0.58403877	      1.02608712	      0.30668978	     10.75747873	      8.58873788	      2.95135382	    -20.45320165	      6.88318543	    -10.46146429	      9.39593266	     24.12363610	     -3.00661540	     -1.12525735	    -44.16140216	      9.75425256	     -5.23895746	      4.73394082	      2.11987453	     -2.10915090	     -0.02316472
      1.19616667	     -3.49337767	     -1.44701902	      2.49936206	      0.58835087	      1.02607841	      0.30694454	     10.44232634	      8.61602066	      3.11464734	    -20.31618578	      7.02462753	    -10.37263282	      9.36416072	     24.44047621	     -3.00961497	     -1.16126226	    -43.15518544	      9.59828212	     -5.50633772	      4.61358206	      2.10755718	     -2.10126115	      0.14934222
      1.20033333	     -3.47847482	     -1.43291297	      2.28082299	      0.59267637	      1.02613398	      0.30721297	     10.08045331	      8.63781460	      3.28508777	    -20.17725884	      7.16272204	    -10.28792335	      9.33332621	     24.68932235	     -3.01363291	     -1.20144762	    -42.11113627	      9.42721326	     -5.76830717	      4.49154089	      2.04146123	     -2.10122702	      0.32404960
      1.20450000	     -3.49019350	     -1.42630181	      2.05718119	      0.59699504	      1.02610390	      0.30749506	      9.75121443	      8.66765276	      3.47271710	    -20.04505496	      7.29679198	    -10.20616343	      9.29857852	     24.95933406	     -3.02880094	     -1.24198296	    -41.05737446	      9.23693547	     -6.03648010	      4.35124766	      2.00355223	     -2.09832543	      0.50976789
      1.20866667	     -3.49117245	     -1.41123264	      1.82869879	      0.60131903	      1.02607683	      0.30778474	      9.41717739	      8.68757364	      3.65755560	    -19.92967209	      7.43733470	    -10.14837281	      9.27038109	     25.19558972	     -3.03896867	     -1.28486541	    -39.96687508	      9.03723304	     -6.30109102	      4.22900539	      1.96940625	     -2.09574986	      0.67923699
